<?xml version="1.0" encoding="UTF-8" standalone="no"?>
<!-- Created with Inkscape (http://www.inkscape.org/) -->

<svg
   version="1.1"
   id="svg1"
   width="986.66669"
   height="986.66669"
   viewBox="0 0 986.66669 986.66669"
   xmlns="http://www.w3.org/2000/svg"
   xmlns:svg="http://www.w3.org/2000/svg">
  <defs
     id="defs1">
    <linearGradient
       id="swatch1">
      <stop
         style="stop-color:#ffffff;stop-opacity:1;"
         offset="0"
         id="stop1" />
    </linearGradient>
  </defs>
  <path
     style="fill:#000000;fill-opacity:1"
     d="m 268.89954,688.4551 c -1.57765,-1.57764 -0.96468,-13.40931 0.76713,-14.8073 0.91667,-0.73998 7.50939,-1.59086 14.65049,-1.89085 14.59973,-0.61332 18.5686,-2.45392 22.68077,-10.51838 2.18252,-4.28018 2.32769,-14.90817 2.27527,-166.57189 -0.0308,-89.1 -0.56179,-164.61829 -1.17998,-167.81842 -0.64766,-3.35271 -2.59612,-7.29055 -4.59784,-9.29227 -3.24632,-3.24632 -4.50071,-3.52021 -19.15128,-4.18159 l -15.67743,-0.70773 v -7.33333 -7.33333 h 76 76.00001 l 0.34788,5.33333 c 0.56761,8.70197 -0.36941,9.2423 -17.46458,10.07101 -21.41764,1.03824 -26.34846,4.94363 -28.21197,22.34487 -1.08855,10.16475 0.5928,117.64182 1.8377,117.47105 0.45336,-0.0622 10.1243,-10.31481 21.49096,-22.78359 23.08791,-25.32652 38.84588,-42.42374 60.00364,-65.10334 31.98038,-34.28065 34.62254,-37.56162 34.64363,-43.0196 0.0164,-4.24203 -0.65185,-5.42887 -4.31393,-7.66168 -2.59674,-1.58327 -6.73784,-2.65226 -10.33333,-2.66749 -8.33213,-0.0353 -9.58465,-1.15412 -9.0865,-8.11671 l 0.41983,-5.86785 52.51121,-0.34897 c 37.65318,-0.25023 53.02678,0.0789 54.33333,1.16326 2.24819,1.86583 2.40078,10.74039 0.22213,12.91904 -0.88,0.88 -5.09927,1.6 -9.37616,1.6 -13.82517,0 -11.38628,-2.06715 -59.12145,50.10999 -6.65369,7.27284 -20.66117,22.82334 -31.12773,34.55668 -10.46657,11.73333 -23.89337,26.57364 -29.83733,32.97846 -5.94397,6.40482 -11.30957,12.54277 -11.92355,13.6399 -1.06363,1.9006 0.28522,4.62599 14.21167,28.71497 1.90782,3.3 5.63786,10.2 8.28899,15.33334 2.65113,5.13333 5.86392,10.83333 7.13953,12.66666 1.27562,1.83334 4.60551,7.83334 7.39976,13.33334 4.91581,9.67593 17.21155,32.2251 30.73056,56.35684 3.60197,6.42959 8.1342,14.65598 10.07161,18.28086 1.93742,3.62488 5.61466,10.36431 8.17166,14.9765 7.76021,13.99749 7.81007,12.64387 -1.20634,32.75558 -1.73501,3.87005 -3.15456,7.373 -3.15456,7.78434 0,0.41134 -1.80062,4.63816 -4.00139,9.39292 -2.20076,4.75476 -5.83958,13.06056 -8.08626,18.45732 -2.24668,5.39677 -4.97877,10.55417 -6.07131,11.4609 -3.503,2.90723 -5.14923,0.33871 -30.84902,-48.13193 -3.305,-6.23333 -6.78362,-12.59106 -7.73027,-14.12828 -0.94665,-1.53723 -4.53765,-8.13723 -7.98,-14.66667 -7.89376,-14.97286 -24.15282,-45.05547 -27.67533,-51.20505 -1.4702,-2.56667 -4.75684,-8.56667 -7.30365,-13.33333 -21.20282,-39.68374 -24.79181,-45.33334 -28.79867,-45.33334 -3.04608,0 -9.99425,6.34616 -12.67744,11.57902 -1.73918,3.39182 -1.94207,89.44222 -0.30016,127.30999 1.10014,25.37275 1.82764,27.99237 9.09768,32.75909 2.83513,1.8589 7.15222,2.44956 20.59483,2.81777 12.00211,0.32875 17.43863,0.985 18.47167,2.22974 0.80514,0.97013 1.27911,4.6605 1.05327,8.20081 l -0.41061,6.43692 -77.4338,0.34398 c -42.58859,0.18919 -77.8386,-0.0608 -78.33334,-0.55556 z m 304.00073,7.3e-4 c -1.53618,-1.53618 -0.98831,-13.16776 0.69974,-14.85582 0.96036,-0.96036 5.6244,-1.60297 11.66667,-1.60743 13.02185,-0.01 19.08932,-1.77944 23.3143,-6.80054 l 3.41903,-4.06329 -0.0424,-116.89771 c -0.0458,-126.29433 0.18975,-122.5171 -6.54694,-104.97745 -1.42516,3.71053 -5.67117,13.94642 -9.4356,22.74642 -3.76442,8.8 -8.25155,19.6 -9.9714,24 -1.71985,4.4 -7.41071,18.2 -12.64635,30.66667 -5.23565,12.46666 -12.52458,29.86666 -16.19764,38.66666 -10.28083,24.63108 -13.08649,30.24134 -14.86072,29.71589 -1.64367,-0.4868 -7.96165,-12.23988 -14.54055,-27.04922 -1.95465,-4.4 -6.35357,-14.3 -9.77537,-22 -3.4218,-7.7 -8.8394,-19.7 -12.03912,-26.66667 -29.9721,-65.25753 -35.33564,-77.71553 -34.53921,-80.22487 0.88946,-2.80242 26.27493,-31.57615 29.63177,-33.5868 3.01012,-1.80296 4.82441,0.9653 14.73205,22.47834 13.48399,29.27857 16.23148,35.35656 16.23148,35.90712 0,1.70808 10.89121,23.42621 11.74777,23.42621 1.14204,0 6.9189,-11.20873 6.9189,-13.4246 0,-0.7443 1.72378,-5.07825 3.83062,-9.631 2.10684,-4.55275 6.06291,-13.97773 8.79127,-20.9444 2.72836,-6.96666 6.30763,-15.66666 7.95393,-19.33333 1.6463,-3.66667 5.56571,-13.26667 8.70981,-21.33334 3.1441,-8.06666 6.62028,-16.72431 7.72486,-19.23922 1.10458,-2.51491 7.97419,-19.61491 15.2658,-38 7.2916,-18.3851 14.21196,-34.48473 15.37856,-35.77698 1.96347,-2.17492 5.74625,-2.32355 50.8998,-2 l 48.77868,0.34954 v 7.33333 7.33333 l -14,0.66667 c -13.06455,0.62212 -14.33625,0.93394 -19.0325,4.66667 -2.9499,2.34467 -5.60564,5.93121 -6.41744,8.66666 -1.69613,5.71529 -1.12753,331.47794 0.58468,334.97303 2.57389,5.25401 10.39979,8.30289 24.86526,9.68721 l 14,1.33977 v 8 8 l -72.09974,0.3447 c -39.65486,0.18959 -72.50486,-0.0604 -73,-0.55555 z"
     id="path1" />
</svg>
